<svg xmlns="http://www.w3.org/2000/svg" version="1.1" xmlns:xlink="http://www.w3.org/1999/xlink" width="1000" height="1000"><metadata><rdf:RDF xmlns:rdf="http://www.w3.org/1999/02/22-rdf-syntax-ns#" xmlns:dc="http://purl.org/dc/elements/1.1/"><rdf:Description><dc:creator>RealFaviconGenerator</dc:creator><dc:source>https://realfavicongenerator.net</dc:source></rdf:Description></rdf:RDF></metadata><style>
    #light-icon {
      display: inline;
    }
    #dark-icon {
      display: none;
    }

    @media (prefers-color-scheme: dark) {
      #light-icon {
        display: none;
      }
      #dark-icon {
        display: inline;
      }
    }
  </style><g id="light-icon"><svg xmlns="http://www.w3.org/2000/svg" version="1.1" xmlns:xlink="http://www.w3.org/1999/xlink" width="1000" height="1000"><g><g transform="matrix(2.5,0,0,2.5,0,62.5)"><svg xmlns="http://www.w3.org/2000/svg" id="uuid-f1425e8e-d4a6-4839-b49d-bdcedcee6d77" width="400" height="350" viewBox="0 0 400 350"><path d="m13.66,216.74h-2.11v-24.67h3.6c2.6,11.78,9.67,22.69,22.81,22.69,9.8,0,18.48-7.19,18.48-17.36,0-11.53-10.29-13.76-19.59-16.99-2.48-.87-4.96-1.74-7.44-2.48-11.53-3.47-17.23-12.15-17.23-23.93,0-13.02,9.67-22.69,22.57-22.69,7.19,0,12.4,1.74,18.1,6.2l4.71-4.96h2.23v23.43h-3.97c-1.36-11.78-9.05-21.57-21.45-21.57-7.94,0-15.38,5.83-15.38,14.14,0,9.55,6.57,10.54,14.26,12.65,3.1.87,5.58,1.74,7.69,2.36,2.48.74,5.58,1.61,8.18,2.85,10.42,4.96,14.14,13.14,14.14,24.3,0,15.62-10.17,27.15-26.16,27.15-5.83,0-13.27-2.36-17.61-6.32l-5.83,5.21Z" style="stroke-width:0px;"></path><path d="m150.83,212.89h12.28v3.1h-40.42v-3.1h12.28v-74.52h-.37l-24.8,77.62h-4.22l-24.67-77.62h-.25v74.52h12.03v3.1h-28.27v-3.1h12.28v-76.63h-12.28v-3.1h31.99l17.36,56.66,17.98-56.66h31.37v3.1h-12.28v76.63Z" style="stroke-width:0px;"></path><path d="m162.56,215.99v-3.1h10.04l29.63-81.59h4.22l28.39,81.59h9.92v3.1h-39.31v-3.1h12.9l-7.56-21.95h-26.78l-7.69,21.95h12.65v3.1h-26.41Zm22.81-28.15h24.18l-11.66-34.59-12.52,34.59Z" style="stroke-width:0px;"></path><path d="m273.75,212.89h12.27v3.1h-40.42v-3.1h12.28v-76.63h-12.28v-3.1h41.54c13.52,0,29.63,1.61,29.63,18.85,0,14.01-14.76,18.85-26.29,20.09v.25c19.34,2.98,23.68,13.39,23.68,33.6,0,4.34.37,9.3,12.28,7.07v2.98c-3.47.87-6.94,1.49-10.54,1.49-12.52,0-19.09-6.32-19.09-18.97,0-10.29-1.74-17.98-4.96-20.71-3.47-2.98-7.44-4.46-11.28-4.46h-6.82v39.55Zm0-42.65h10.17c11.16,0,15.75-5.33,15.75-16.49,0-13.89-4.09-17.48-15.13-17.48h-10.79v33.97Z" style="stroke-width:0px;"></path><path d="m338.68,215.99v-3.1h13.02v-76.63c-17.48-.87-22.82,7.56-25.05,23.43h-3.97l1.36-26.53h71.05l1.36,26.53h-3.84c-2.23-15.87-7.56-24.3-25.05-23.43v76.63h13.02v3.1h-41.91Z" style="stroke-width:0px;"></path><path d="m47.67,121.43c12.03-34.08,35.18-62.94,65.13-82.23,3.13,3.73,7.06,7.15,11.66,10.24-13.98,18.33-24.47,42.66-30.59,71.99h3.52c6.06-28.62,16.36-52.29,30.03-70.1,8.34,5.04,18.61,9.06,30.26,11.91-4.68,16.16-8.25,35.7-10.51,58.19h3.43c2.24-22.14,5.81-41.47,10.47-57.4,11.34,2.49,23.89,3.9,37.17,4.05l-.05,53.35h3.4l.05-53.33s.1,0,.15,0c13.07-.1,25.46-1.44,36.71-3.84,4.63,15.88,8.22,35.13,10.55,57.17h3.45c-2.32-22.38-5.9-41.83-10.57-57.95,11.85-2.82,22.3-6.86,30.78-11.92,13.63,17.78,23.88,41.38,29.87,69.86h3.52c-6.07-29.18-16.51-53.41-30.46-71.7,4.75-3.14,8.78-6.64,11.95-10.43,29.84,19.31,52.91,48.07,64.89,82.13h3.58C333.79,56.66,272.26,10,200,10S66.21,56.66,43.93,121.43h3.75Zm236.93-83.93c-2.95,3.47-6.67,6.67-11.04,9.56-10.88-13.49-23.77-23.51-38.25-29.65,17.7,3.97,34.31,10.83,49.29,20.09Zm-13.97,11.41c-8.13,4.83-18.2,8.69-29.64,11.38-6.94-22.64-16.1-38.23-26.89-45.44,22.07,3.52,41.29,15.3,56.53,34.06ZM201.7,13.95c14.44,1.3,26.92,18.24,35.85,47.11-10.96,2.3-23.06,3.57-35.84,3.64h-.05l.04-50.75Zm-3.44,50.73c-12.81-.15-25.05-1.55-36.16-4.02,8.95-28.73,21.56-45.58,36.2-46.81l-.04,50.83Zm-39.56-4.81c-11.14-2.75-21.02-6.6-29.05-11.34,15.15-18.54,34.16-30.18,55.95-33.68-10.83,7.16-19.99,22.61-26.91,45.02Zm5.16-42.27c-14.05,6.11-26.57,15.92-37.2,29.06-4.32-2.85-8.02-5.97-10.95-9.35,14.71-9.03,30.89-15.75,48.15-19.71Z" style="fill:#004996; stroke-width:0px;"></path><path d="m352.45,228.57c-12.08,34.26-35.37,63.27-65.45,82.53-3.21-3.7-7.24-7.11-11.97-10.18,13.92-18.07,24.46-41.99,30.67-70.77l-3.4-.7c-6.13,28.41-16.52,51.96-30.23,69.66-8.32-4.86-18.5-8.76-30.01-11.51,4.59-15.91,8.12-35.19,10.43-57.55l-3.4-.4c-2.28,22.19-5.83,41.4-10.43,57.18-11.32-2.42-23.8-3.76-36.97-3.83l.1-53.15h-3.4l-.05,53.17c-13.02.13-25.37,1.47-36.59,3.88-4.59-15.66-8.19-34.73-10.56-56.75l-3.4.4c1.52,14.17,4.65,36.4,10.64,57.11-11.59,2.77-21.86,6.71-30.25,11.65-13.78-17.62-24.23-41.06-30.38-69.35l-3.4.7c6.23,28.69,16.8,52.52,30.79,70.52-4.67,3.05-8.68,6.44-11.89,10.13-30.17-19.28-53.54-48.41-65.65-82.73h-3.72c22.29,64.78,83.82,111.43,156.07,111.43s133.79-46.66,156.07-111.43h-3.62Zm-236.15,84.53c2.99-3.32,6.74-6.39,11.1-9.18,10.83,13.14,23.58,22.9,37.84,28.88-17.56-3.88-34.06-10.61-48.94-19.7Zm14.12-11.02c8.06-4.63,17.94-8.37,29.03-11.04,5.81,18.91,14.1,36.08,25.85,44.01-21.22-3.56-39.9-14.95-54.88-32.97Zm67.88,34.07c-14.36-1.21-26.65-17.53-35.51-45.87,10.95-2.37,22.99-3.72,35.55-3.86l-.05,49.73Zm3.39-49.75h0c12.83.1,24.98,1.4,35.98,3.74-8.88,28.6-21.38,45.03-36.07,46.11l.09-49.85Zm39.39,4.5c11.06,2.62,20.84,6.31,28.83,10.92-15.04,18.3-33.83,29.85-55.21,33.43,10.65-7.1,19.59-22.22,26.38-44.35Zm-5.93,41.85c14.22-6.04,26.93-15.89,37.73-29.13,4.41,2.83,8.19,5.97,11.22,9.37-14.9,9.12-31.4,15.86-48.95,19.76Z" style="fill:#004996; stroke-width:0px;"></path></svg></g></g></svg></g><g id="dark-icon"><svg xmlns="http://www.w3.org/2000/svg" version="1.1" xmlns:xlink="http://www.w3.org/1999/xlink" width="1000" height="1000"><g><g transform="matrix(2.5,0,0,2.5,0,62.5)"><svg xmlns="http://www.w3.org/2000/svg" id="uuid-eacb21df-7c8c-4dde-8836-c85a3fae31d3" width="400" height="350" viewBox="0 0 400 350"><path d="m13.66,218.82h-2.11v-24.67h3.6c2.6,11.78,9.67,22.69,22.81,22.69,9.79,0,18.47-7.19,18.47-17.36,0-11.53-10.29-13.76-19.59-16.99-2.48-.87-4.96-1.74-7.44-2.48-11.53-3.47-17.23-12.15-17.23-23.93,0-13.02,9.67-22.69,22.57-22.69,7.19,0,12.4,1.74,18.1,6.2l4.71-4.96h2.23v23.43h-3.97c-1.37-11.78-9.05-21.58-21.45-21.58-7.94,0-15.38,5.83-15.38,14.14,0,9.55,6.57,10.54,14.26,12.65,3.1.87,5.58,1.74,7.69,2.36,2.48.74,5.58,1.61,8.18,2.85,10.42,4.96,14.14,13.14,14.14,24.3,0,15.62-10.17,27.15-26.16,27.15-5.83,0-13.27-2.36-17.61-6.32l-5.83,5.21Z" style="fill:#c4e3ff; stroke-width:0px;"></path><path d="m150.83,214.97h12.28v3.1h-40.42v-3.1h12.28v-74.52h-.37l-24.8,77.62h-4.22l-24.67-77.62h-.25v74.52h12.03v3.1h-28.27v-3.1h12.28v-76.63h-12.28v-3.1h31.99l17.36,56.66,17.98-56.66h31.37v3.1h-12.28v76.63Z" style="fill:#c4e3ff; stroke-width:0px;"></path><path d="m162.56,218.07v-3.1h10.04l29.63-81.59h4.22l28.39,81.59h9.92v3.1h-39.3v-3.1h12.89l-7.56-21.95h-26.78l-7.69,21.95h12.65v3.1h-26.41Zm22.81-28.15h24.18l-11.66-34.59-12.52,34.59Z" style="fill:#c4e3ff; stroke-width:0px;"></path><path d="m273.75,214.97h12.27v3.1h-40.42v-3.1h12.28v-76.63h-12.28v-3.1h41.54c13.52,0,29.63,1.61,29.63,18.85,0,14.01-14.76,18.85-26.29,20.09v.25c19.34,2.98,23.68,13.39,23.68,33.6,0,4.34.37,9.3,12.28,7.07v2.98c-3.47.87-6.94,1.49-10.54,1.49-12.52,0-19.09-6.32-19.09-18.97,0-10.29-1.74-17.98-4.96-20.71-3.47-2.98-7.44-4.46-11.28-4.46h-6.82v39.55Zm0-42.65h10.17c11.16,0,15.75-5.33,15.75-16.49,0-13.89-4.09-17.48-15.13-17.48h-10.79v33.97Z" style="fill:#c4e3ff; stroke-width:0px;"></path><path d="m338.68,218.07v-3.1h13.02v-76.63c-17.48-.87-22.81,7.56-25.05,23.43h-3.97l1.36-26.53h71.05l1.36,26.53h-3.84c-2.23-15.87-7.56-24.3-25.05-23.43v76.63h13.02v3.1h-41.91Z" style="fill:#c4e3ff; stroke-width:0px;"></path><path d="m47.67,123.52c12.03-34.08,35.18-62.94,65.13-82.23,3.13,3.73,7.06,7.15,11.66,10.24-13.98,18.33-24.47,42.66-30.59,71.99h3.52c6.06-28.62,16.36-52.29,30.03-70.1,8.34,5.04,18.61,9.06,30.26,11.91-4.68,16.16-8.25,35.7-10.51,58.19h3.43c2.24-22.14,5.81-41.47,10.47-57.4,11.34,2.49,23.89,3.9,37.17,4.05l-.05,53.35h3.4l.05-53.33s.1,0,.15,0c13.07-.1,25.46-1.44,36.71-3.84,4.63,15.88,8.22,35.13,10.55,57.17h3.45c-2.32-22.38-5.9-41.83-10.57-57.95,11.85-2.82,22.3-6.86,30.78-11.92,13.63,17.78,23.88,41.38,29.87,69.86h3.52c-6.07-29.18-16.51-53.41-30.46-71.7,4.75-3.14,8.78-6.64,11.95-10.43,29.84,19.31,52.91,48.07,64.89,82.13h3.58C333.79,58.74,272.26,12.08,200,12.08S66.21,58.74,43.93,123.52h3.75Zm236.93-83.93c-2.95,3.47-6.67,6.67-11.04,9.56-10.88-13.49-23.77-23.51-38.25-29.65,17.7,3.97,34.31,10.83,49.29,20.09Zm-13.97,11.41c-8.13,4.83-18.2,8.69-29.64,11.38-6.94-22.64-16.1-38.23-26.89-45.44,22.07,3.52,41.29,15.3,56.53,34.06Zm-68.93-34.96c14.44,1.3,26.92,18.24,35.85,47.11-10.96,2.3-23.06,3.57-35.84,3.64h-.05l.04-50.75Zm-3.44,50.73c-12.81-.15-25.05-1.55-36.16-4.02,8.95-28.73,21.56-45.58,36.2-46.81l-.04,50.83Zm-39.56-4.81c-11.14-2.75-21.02-6.6-29.05-11.34,15.15-18.54,34.16-30.18,55.95-33.68-10.83,7.16-19.99,22.61-26.91,45.02Zm5.16-42.27c-14.05,6.11-26.57,15.92-37.2,29.06-4.32-2.85-8.02-5.97-10.95-9.35,14.71-9.03,30.89-15.75,48.15-19.71Z" style="fill:#61b4ff; stroke-width:0px;"></path><path d="m352.45,230.65c-12.08,34.26-35.37,63.27-65.45,82.53-3.21-3.7-7.24-7.11-11.97-10.18,13.92-18.07,24.46-41.99,30.67-70.77l-3.4-.7c-6.13,28.41-16.52,51.96-30.23,69.66-8.32-4.86-18.5-8.76-30.01-11.51,4.59-15.91,8.12-35.19,10.43-57.55l-3.4-.4c-2.28,22.19-5.83,41.4-10.43,57.18-11.32-2.42-23.8-3.76-36.97-3.83l.1-53.15h-3.4l-.05,53.17c-13.02.13-25.37,1.47-36.59,3.88-4.59-15.66-8.19-34.73-10.56-56.75l-3.4.4c1.52,14.17,4.65,36.4,10.64,57.11-11.59,2.77-21.86,6.71-30.25,11.65-13.78-17.62-24.23-41.06-30.38-69.35l-3.4.7c6.23,28.69,16.8,52.52,30.79,70.52-4.67,3.05-8.68,6.44-11.89,10.13-30.17-19.28-53.54-48.41-65.65-82.73h-3.72c22.29,64.78,83.82,111.43,156.07,111.43s133.79-46.66,156.07-111.43h-3.62Zm-236.15,84.53c2.99-3.32,6.74-6.39,11.1-9.18,10.83,13.14,23.58,22.9,37.84,28.88-17.56-3.88-34.06-10.61-48.94-19.7Zm14.12-11.02c8.06-4.63,17.94-8.37,29.03-11.04,5.81,18.91,14.1,36.08,25.85,44.01-21.22-3.56-39.9-14.95-54.88-32.97Zm67.88,34.07c-14.36-1.21-26.65-17.53-35.51-45.87,10.95-2.37,22.99-3.72,35.55-3.86l-.05,49.73Zm3.39-49.75h0c12.83.1,24.98,1.4,35.98,3.74-8.88,28.6-21.38,45.03-36.07,46.11l.09-49.85Zm39.39,4.5c11.06,2.62,20.84,6.31,28.83,10.92-15.04,18.3-33.83,29.85-55.21,33.43,10.65-7.1,19.59-22.22,26.38-44.35Zm-5.93,41.85c14.22-6.04,26.93-15.89,37.73-29.13,4.41,2.83,8.19,5.97,11.22,9.37-14.9,9.12-31.4,15.86-48.95,19.76Z" style="fill:#61b4ff; stroke-width:0px;"></path></svg></g></g></svg></g></svg>