<svg xmlns="http://www.w3.org/2000/svg" viewBox="40 15 365 365">
  <path d="M222,362.3c-91,0-165-74-165-165S131,32.3,222,32.3s165,74,165,165-74,165-165,165ZM138.3,335.4c24.4,14.9,53.1,23.5,83.8,23.5s59.5-8.6,84-23.6c-14.4-16.2-45.6-26.3-82.4-26.6h-1.2c-36.9,0-69.5,10.4-84.2,26.7ZM134.8,61.5c-44.7,28.8-74.3,78.9-74.3,135.9s29.9,107.5,74.8,136.2c15.3-17.6,48.4-28.3,87.1-28.3h1.3c38.1.2,70.5,11,85.3,28.1,44.8-28.7,74.6-79,74.6-136.1s-29.5-106.9-74-135.7c-14.6,17.5-47.3,28.5-85.8,28.8-40,.2-73.8-10.8-89-28.9ZM137.7,59.6c14.5,16.7,47.4,27.4,84.8,27.4h1.2c37.3-.2,68.8-10.6,82.9-27.2-24.6-15.2-53.6-24-84.6-24s-59.7,8.7-84.3,23.8Z" style="fill:#004996;"/>
  <path d="M222.7,362.4h-.2v-2h-.2v1.9c-51.3,0-90.7-40.8-105.5-109l3.4-.7c13,59.8,45.2,98,87.5,105.1-25.2-17-34.5-76.5-37.5-104.5l3.4-.4c7,64.8,24.5,104.1,47.1,106l.1-106.3h3.4l-.2,106.4c23.1-1.7,40.8-41.3,47.5-106.6l3.4.4c-5.8,56-19.2,92.8-37.8,105.2,42.4-7.1,74.6-45.5,87.6-105.8l3.4.7c-14.8,68.6-54.2,109.6-105.4,109.6ZM272,149.5c-6.4-68-24.6-110.8-47.9-112.9l-.1,112.7h-3.4l.1-112.8c-23.7,2-42.1,44.9-48.2,112.9l-3.4-.3c5.3-59,19.4-98.7,38.9-111.6-44.2,7.1-77,47.6-89.2,111.5l-3.4-.6c13.8-72.4,53.7-115.5,106.8-115.5h.2v.1c53.3.1,93.3,43.2,107,115.5l-3.4.6c-12.1-63.9-45-104.5-89.5-111.6,19.3,12.9,33.4,52.6,38.9,111.6l-3.4.4Z" style="fill:#004996;"/>
</svg>
