<?xml version="1.0" encoding="UTF-8"?><svg id="uuid-55bfb236-37a6-4b85-806b-862754f2ca26" xmlns="http://www.w3.org/2000/svg" width="400" height="350" viewBox="0 0 400 350"><path d="m163.72,108.77c2.68-2.87,4.95-5.31,7.22-7.74,2.81,0,5.55,0,8.28,0,31.51,0,63.01,0,94.52,0,6.73,0,11.15-6.1,8.84-12.1-1.36-3.52-4.66-5.7-8.78-5.7-15.22-.01-30.44,0-45.66,0-8.55,0-15.76-5.94-16.73-13.77-1.15-9.22,3.8-16.66,12.62-18.84,1.45-.36,3.01-.4,4.52-.41,16.44-.03,32.88-.03,49.31-.01,5.16,0,8.26,2.71,8.38,7.53h-2.4c-18.34,0-36.68-.01-55.02,0-5.26,0-8.65,2.52-9.74,7.13-1.26,5.32,2.82,10.58,8.31,10.6,14.99.03,29.98,0,44.98.03,1.59,0,3.19.15,4.76.4,8.02,1.26,13.78,8.22,13.73,16.52-.05,7.89-6.01,14.8-13.85,15.95-1.65.24-3.32.39-4.99.39-35.08.02-70.17.02-105.25.02-.82,0-1.65,0-3.06,0Z" style="fill:#017abe; stroke-width:0px;"/><path d="m160.57,101.03c-2.64,2.82-4.9,5.25-6.88,7.36-8.98,0-17.59.48-26.14-.11-12.33-.85-22.98-10.99-25.24-23.09-2.9-15.52,6.34-30.18,21.64-34.12,2.47-.63,5.1-.84,7.66-.85,25.26-.06,50.52-.04,75.78-.03.52,0,1.03.05,2,.1-2.52,2.64-4.78,5.03-7.11,7.47-.93,0-1.84,0-2.75,0-22.6,0-45.19,0-67.79,0-11.02,0-19.47,6.81-21.86,17.55-2.52,11.29,5.62,23.37,17.08,25.24,2.01.33,4.08.44,6.12.45,8.97.05,17.94.02,27.5.02Z" style="fill:#017abe; stroke-width:0px;"/><path d="m51.12,157.96c0-17.4,15.29-35.02,32.91-35.02s32.8,17.62,32.8,35.02c0,19.3-11.92,38.61-32.8,38.61s-32.91-19.3-32.91-38.61Zm50.21-11.18c0-3.8-.53-7.38-1.58-10.55-2.11-6.43-6.43-10.65-15.72-10.65s-13.92,4.22-15.82,10.65c-.95,3.16-1.58,6.75-1.58,10.55v23c0,4.11.21,8.12,1.16,11.81,1.9,7.28,6.33,12.34,16.25,12.34s14.35-5.06,16.24-12.34c.95-3.69,1.05-7.7,1.05-11.81v-23Z" style="stroke-width:0px;"/><path d="m159.54,192.35h10.44v2.64h-34.39v-2.64h10.44v-65.19h-10.44v-2.64h34.39v2.64h-10.44v65.19Z" style="stroke-width:0px;"/><path d="m259.32,192.35h10.44v2.64h-34.39v-2.64h10.44v-63.4h-.32l-21.1,66.03h-3.59l-20.99-66.03h-.21v63.4h10.23v2.64h-24.05v-2.64h10.44v-65.19h-10.44v-2.64h27.21l14.77,48.21,15.3-48.21h26.69v2.64h-10.44v65.19Z" style="stroke-width:0px;"/><path d="m283.79,194.98v-2.64h10.44v-65.19h-10.44v-2.64h34.92v2.64h-10.97v65.19h13.82c13.4,0,18.14-8.97,18.57-21.1h3.27l-1.05,23.73h-58.54Z" style="stroke-width:0px;"/><path d="m200,12.5c-89.75,0-162.5,72.75-162.5,162.5s72.75,162.5,162.5,162.5,162.5-72.75,162.5-162.5S289.75,12.5,200,12.5Zm0,320.75c-87.4,0-158.25-70.85-158.25-158.25S112.6,16.75,200,16.75s158.25,70.85,158.25,158.25-70.85,158.25-158.25,158.25Z" style="fill:#017abe; stroke-width:0px;"/><path d="m70.81,246.85c-1.08-.83-2.72-2.86-4.09-5.75-3.16-6.7-1.29-13.71,6.54-17.4,7.48-3.53,14.86-.84,18.34,6.53,1.38,2.93,1.64,5.13,1.6,6.14l-2.87.4c.03-1.4-.33-3.25-1.26-5.23-2.63-5.57-7.94-7.6-14.18-4.65-5.85,2.76-7.98,7.86-5.27,13.61.9,1.9,2.18,3.63,3.37,4.58l-2.19,1.76Z" style="stroke-width:0px;"/><path d="m81.66,248.99c-3.8,2.67-3.74,6.16-1.79,9.04,1.38,2.03,2.59,3.05,3.74,3.78l-1.68,1.9c-1.13-.69-2.86-2.06-4.55-4.55-3.26-4.81-2.01-9.85,2.7-13.04,4.71-3.2,10.27-2.92,13.36,1.64,3.48,5.13-.08,9.48-2.95,11.42-.58.39-1.02.65-1.39.8l-7.44-10.97Zm7.68,6.95c1.8-1.17,4.08-3.85,1.91-7.05-1.97-2.91-5.42-2.36-7.54-1.25l5.62,8.3Z" style="stroke-width:0px;"/><path d="m95.73,261.27c1.67-1.46,3.09-2.75,4.33-3.99l1.98,2.26-2.72,2.58.08.09c2.47-1.02,5.06-.49,6.58,1.25.23.26.38.5.56.76l-2.44,2.13c-.17-.32-.4-.58-.71-.93-1.59-1.82-4.07-1.93-6.32-.59-.4.25-.87.6-1.28.96l-7.58,6.62-2.26-2.59,9.78-8.54Z" style="stroke-width:0px;"/><path d="m115.54,266.98l-3.07,3.32,3.6,3.34-1.78,1.92-3.6-3.34-6.92,7.47c-1.59,1.72-2,3.14-.6,4.44.69.64,1.14.95,1.62,1.18l-1.66,2.02c-.65-.28-1.58-.82-2.55-1.72-1.17-1.09-1.75-2.36-1.74-3.58.03-1.41.88-2.9,2.39-4.53l7-7.55-2.15-1.99,1.78-1.92,2.15,1.99,2.38-2.58,3.15,1.54Z" style="stroke-width:0px;"/><path d="m107.31,290.75l11.64-14.86,2.7,2.12-11.64,14.86-2.7-2.12Zm17.92-16.67c-.72.92-1.94,1.15-3.02.31-.98-.77-1.05-2.01-.33-2.93.72-.92,2-1.16,3.01-.37.98.77,1.08,2.04.33,2.99Z" style="stroke-width:0px;"/><path d="m116.36,297.64l8.54-13.85-2.23-1.37,1.37-2.22,2.22,1.37.55-.9c2.6-4.22,6.79-5.44,11.3-2.66,1.5.92,2.97,2.47,3.43,3.58l-2.2,1.71c-.42-.95-1.39-2.14-2.81-3.02-3.09-1.9-5.31-.3-6.89,2.26l-.49.8,9.33,5.75-9.9,16.07-2.92-1.8,8.53-13.85-6.41-3.95-8.53,13.85-2.89-1.78Z" style="stroke-width:0px;"/><path d="m148.29,313.51c-.99.04-3.08-.15-5.41-1.16-5.23-2.26-7.09-7.28-4.79-12.58,2.31-5.33,7.65-7.65,13.31-5.2,1.86.81,3.3,1.99,3.96,2.82l-1.76,2.09c-.58-.72-1.58-1.66-3.29-2.41-3.97-1.72-7.41.32-8.96,3.89-1.74,4.01-.23,7.59,3.2,9.08,1.79.78,3.16.86,4.22.85l-.49,2.59Z" style="stroke-width:0px;"/><path d="m168.06,315.35c-.44,1.58-.79,3.14-.94,4.43l-2.97-.82.37-2.37-.11-.03c-1.41,1.15-3.72,1.89-6.31,1.17-3.68-1.02-4.85-4.13-4.12-6.76,1.22-4.4,5.79-5.72,12.81-3.74l.1-.38c.41-1.47.75-4.32-2.98-5.32-1.73-.48-3.63-.48-5.15.03l-.14-2.43c1.76-.52,4.16-.55,6.45.08,5.56,1.54,5.87,5.71,4.87,9.32l-1.88,6.8Zm-1.83-5.81c-3.59-1.07-7.86-1.57-8.84,1.97-.6,2.18.56,3.55,2.21,4.01,2.41.67,4.36-.41,5.32-1.81.22-.34.36-.71.44-1.01l.87-3.16Z" style="stroke-width:0px;"/><path d="m181.55,298.52l-.68,4.47,4.86.74-.39,2.58-4.86-.74-1.53,10.06c-.35,2.31.1,3.72,1.99,4.01.92.14,1.48.14,2,.07l-.24,2.61c-.69.13-1.77.21-3.08,0-1.58-.24-2.77-.97-3.45-1.98-.77-1.18-.9-2.9-.57-5.09l1.55-10.18-2.89-.44.39-2.58,2.89.44.53-3.47,3.47-.5Z" style="stroke-width:0px;"/><path d="m188.09,322.81l1.27-18.83,3.42.23-1.28,18.83-3.42-.23Zm5.45-23.87c-.08,1.17-.96,2.05-2.32,1.95-1.25-.08-2-1.07-1.92-2.24s1-2.08,2.29-2c1.25.08,2.04,1.08,1.96,2.28Z" style="stroke-width:0px;"/><path d="m215.74,313.08c.34,6.97-4.39,10.25-8.91,10.47-5.07.24-9.22-3.3-9.51-9.26-.3-6.27,3.69-10.17,8.87-10.43,5.42-.26,9.27,3.5,9.54,9.22Zm-14.91.92c.2,4.13,2.69,7.13,6.04,6.97,3.27-.16,5.58-3.36,5.37-7.6-.15-3.19-1.95-7.13-6-6.93-4.01.19-5.58,4.02-5.41,7.56Z" style="stroke-width:0px;"/><path d="m220.13,308.19c-.43-1.94-.8-3.46-1.25-4.96l2.97-.65.86,3,.08-.02c.54-1.92,2.29-4.1,5.34-4.77,2.55-.56,6.85.09,8.24,6.41l2.41,10.97-3.35.74-2.34-10.63c-.65-2.97-2.3-5.2-5.46-4.51-2.17.48-3.54,2.42-3.74,4.42-.06.45-.01,1.04.12,1.61l2.44,11.08-3.35.74-2.96-13.45Z" style="stroke-width:0px;"/><path d="m254.55,308.26c1.79.22,4.08-.06,6.19-1.07,3.13-1.5,4.17-4.03,3.02-6.42-1.05-2.18-2.94-2.88-6.71-2.53-4.54.45-7.91-.44-9.5-3.75-1.77-3.69-.03-7.9,4.58-10.11,2.39-1.15,4.45-1.45,5.76-1.34l.35,2.9c-.96-.1-2.86-.01-5.01,1.02-3.24,1.55-3.54,4.08-2.76,5.69,1.06,2.21,3.03,2.61,6.91,2.31,4.75-.38,7.68.6,9.35,4.08,1.76,3.66.62,8.14-4.97,10.82-2.29,1.1-5.12,1.59-6.79,1.36l-.42-2.96Z" style="stroke-width:0px;"/><path d="m265.31,286.23l9.53,7.09c1.07.79,2.28,1.77,3.16,2.55l.07-.04c-.33-1.14-.79-2.56-1.14-3.96l-2.93-11.32,3.04-1.98,3.05,14.08c1.49,6.76,1.88,10.42,1.05,13.43-.65,2.15-1.7,3.53-2.33,4.13l-2.28-1.92c.57-.7,1.22-1.77,1.59-3.05.38-1.13.6-2.86.33-4.78-.06-.38-.11-.67-.22-.84s-.32-.35-.72-.6l-15.33-10.76,3.13-2.05Z" style="stroke-width:0px;"/><path d="m288.68,288.79c1.21-.2,3.03-.83,4.34-1.94,1.88-1.59,1.99-3.27.95-4.49-1.06-1.25-2.36-1.27-4.87-.38-3.43,1.26-5.83.9-7.29-.83-1.97-2.32-1.67-5.84,1.39-8.43,1.46-1.23,3.07-1.93,4.27-2.08l.99,2.43c-.87.12-2.34.5-3.68,1.63-1.55,1.31-1.62,2.91-.72,3.98,1.01,1.19,2.29,1.02,4.8.18,3.25-1.17,5.62-1.03,7.43,1.12,2.17,2.56,1.68,6.03-1.68,8.88-1.58,1.33-3.39,2.15-4.91,2.41l-1.04-2.49Z" style="stroke-width:0px;"/><path d="m290.26,260.31l3.27,3.12,3.39-3.56,1.89,1.8-3.39,3.56,7.36,7.03c1.69,1.62,3.11,2.05,4.43.67.65-.68.97-1.13,1.2-1.6l2,1.69c-.29.64-.85,1.56-1.76,2.52-1.1,1.16-2.39,1.71-3.6,1.68-1.41-.05-2.89-.92-4.5-2.46l-7.45-7.11-2.02,2.12-1.89-1.8,2.02-2.12-2.54-2.42,1.58-3.13Z" style="stroke-width:0px;"/><path d="m308.25,262.02c3.75,2.73,7.04,1.55,9.13-1.22,1.48-1.96,2.05-3.44,2.37-4.76l2.34.98c-.29,1.29-1.03,3.37-2.84,5.77-3.5,4.64-8.67,5.08-13.22,1.66-4.55-3.43-6.08-8.78-2.77-13.17,3.74-4.95,9-2.99,11.77-.9.56.42.94.76,1.21,1.06l-7.98,10.59Zm4.1-9.51c-1.69-1.32-4.96-2.62-7.29.46-2.11,2.8-.48,5.89,1.25,7.54l6.04-8Z" style="stroke-width:0px;"/><path d="m315.14,244.76c-1.79-.87-3.22-1.49-4.66-2.1l1.32-2.7,2.84,1.21.05-.11c-1.15-1.73-1.88-4.05-.5-6.88,1.11-2.28,3.37-3.34,5.73-3.1l.04-.07c-.72-1.01-1.08-2.05-1.26-3.01-.27-1.39-.16-2.68.63-4.3,1.11-2.28,4.21-4.88,10.1-2l9.95,4.87-1.47,3.01-9.56-4.68c-3.29-1.61-5.82-1.33-7.02,1.12-.88,1.79-.23,3.75.97,5.03.39.36.86.72,1.42,1l10.47,5.13-1.47,3.01-10.16-4.97c-2.7-1.32-5.21-1.07-6.35,1.28-.93,1.89-.09,4.08,1.21,5.33.33.38.86.73,1.39.98l10.19,4.99-1.47,3.01-12.37-6.05Z" style="stroke-width:0px;"/><path d="m302.19,213.46c-8.08,21.47-22.86,40.13-42.8,53.09-1.95-2.14-4.32-4.17-7.07-6.02,9.35-12.4,16.18-28.23,20.33-47.06h-4.19c-4.07,18.04-10.66,33.15-19.61,44.93-5.4-3.06-11.84-5.53-19.13-7.34,2.98-10.59,5.26-23.24,6.79-37.59h-4.08c-1.49,13.97-3.74,26.31-6.7,36.68-7.44-1.54-15.41-2.36-23.71-2.46l.06-34.22h-4.04l-.03,34.24c-8.22.13-16.11.97-23.44,2.49-2.98-10.37-5.27-22.73-6.82-36.73h-4.09c1.07,9.8,3.13,24.06,6.97,37.62-7.37,1.83-13.86,4.33-19.31,7.43-9.05-11.79-15.7-26.95-19.79-45.06h-4.19c4.15,18.93,11.04,34.82,20.49,47.23-2.72,1.85-5.08,3.87-7.02,5.99-20.02-12.98-34.86-31.7-42.95-53.22h-4.34c15.78,43.55,57.55,74.75,106.48,74.75s90.7-31.2,106.48-74.75h-4.29Zm-157.82,55.39c1.68-1.72,3.7-3.38,6.03-4.92,5.44,6.47,11.58,11.72,18.27,15.64-8.51-2.56-16.66-6.15-24.3-10.71Zm9.59-7.07c5.05-2.77,11.05-5.03,17.85-6.73,4.03,12.84,9.02,22.04,14.85,27.39-12.32-2.89-23.59-10-32.7-20.66Zm44.03,21.99c-8.77-1.37-16.43-11.59-22.21-29.62,7.02-1.46,14.5-2.26,22.24-2.4l-.03,32.02Zm3.97.08l.06-32.11c7.9.11,15.48.89,22.53,2.32-5.81,18.22-13.61,28.51-22.59,29.79Zm26.61-28.89c6.76,1.66,12.72,3.9,17.72,6.65-9.14,10.82-20.47,18.04-32.87,20.96,6.01-5.42,11.1-14.69,15.15-27.61Zm2.91,24.62c6.72-3.96,12.88-9.28,18.33-15.84,2.36,1.57,4.41,3.27,6.12,5.05-7.67,4.6-15.88,8.22-24.45,10.79Z" style="fill:#017abe; stroke-width:0px;"/></svg>