<?xml version="1.0" encoding="UTF-8"?><svg id="uuid-b3651d5c-20c2-4ab8-bead-6ef166973cd7" xmlns="http://www.w3.org/2000/svg" width="400" height="350" xmlns:xlink="http://www.w3.org/1999/xlink" viewBox="0 0 400 350"><defs><clipPath id="uuid-413657e1-8418-46e0-82e8-e8e6fe3a32f8"><circle cx="196.41" cy="175.15" r="165" style="fill:none; stroke-width:0px;"/></clipPath><clipPath id="uuid-33c233f9-4633-4ba9-ac33-51876d7df4d6"><circle cx="196.41" cy="-205.87" r="165" style="fill:none; stroke-width:0px;"/></clipPath></defs><path d="m196.41,14.15c12.65,0,25.44,16.62,35.1,45.59,10.26,30.77,15.9,71.75,15.9,115.41s-5.65,84.64-15.9,115.41c-9.66,28.97-22.45,45.59-35.1,45.59s-25.44-16.62-35.1-45.59c-10.26-30.77-15.9-71.75-15.9-115.41s5.65-84.64,15.9-115.41c9.66-28.97,22.45-45.59,35.1-45.59m0-4c-30.38,0-55,73.87-55,165s24.62,165,55,165,55-73.87,55-165S226.79,10.15,196.41,10.15h0Z" style="fill:#61b4ff; stroke-width:0px;"/><path d="m196.41,14.15c58.45,0,106,72.22,106,161s-47.55,161-106,161-106-72.22-106-161S137.97,14.15,196.41,14.15m0-4c-60.75,0-110,73.87-110,165s49.25,165,110,165,110-73.87,110-165S257.17,10.15,196.41,10.15h0Z" style="fill:#61b4ff; stroke-width:0px;"/><path d="m196.41,14.15c43,0,83.44,16.75,113.84,47.16,30.41,30.41,47.16,70.84,47.16,113.84s-16.75,83.44-47.16,113.84c-30.41,30.41-70.84,47.16-113.84,47.16s-83.44-16.75-113.84-47.16c-30.41-30.41-47.16-70.84-47.16-113.84s16.75-83.44,47.16-113.84c30.41-30.41,70.84-47.16,113.84-47.16m0-4C105.29,10.15,31.41,84.02,31.41,175.15s73.87,165,165,165,165-73.87,165-165S287.54,10.15,196.41,10.15h0Z" style="fill:#61b4ff; stroke-width:0px;"/><line x1="196.41" y1="10.4" x2="196.41" y2="340.15" style="fill:none; stroke:#61b4ff; stroke-linejoin:round; stroke-width:4px;"/><g style="clip-path:url(#uuid-413657e1-8418-46e0-82e8-e8e6fe3a32f8);"><path d="m196.41-41.62c25.62,0,49.64,5.62,67.65,15.82,17.29,9.79,26.81,22.56,26.81,35.96s-9.52,26.16-26.81,35.96c-18,10.2-42.03,15.82-67.65,15.82s-49.64-5.62-67.65-15.82c-17.29-9.79-26.81-22.56-26.81-35.96s9.52-26.16,26.81-35.96c18-10.2,42.03-15.82,67.65-15.82m0-4c-54.38,0-98.45,24.97-98.45,55.77s44.08,55.77,98.45,55.77,98.45-24.97,98.45-55.77-44.08-55.77-98.45-55.77h0Z" style="fill:#61b4ff; stroke-width:0px;"/><path d="m196.41,288.38c25.62,0,49.64,5.62,67.65,15.82,17.29,9.79,26.81,22.56,26.81,35.96s-9.52,26.16-26.81,35.96c-18,10.2-42.03,15.82-67.65,15.82s-49.64-5.62-67.65-15.82c-17.29-9.79-26.81-22.56-26.81-35.96s9.52-26.16,26.81-35.96c18-10.2,42.03-15.82,67.65-15.82m0-4c-54.38,0-98.45,24.97-98.45,55.77s44.08,55.77,98.45,55.77,98.45-24.97,98.45-55.77-44.08-55.77-98.45-55.77h0Z" style="fill:#61b4ff; stroke-width:0px;"/></g><g style="clip-path:url(#uuid-33c233f9-4633-4ba9-ac33-51876d7df4d6);"><path d="m196.41-92.64c25.62,0,49.64,5.62,67.65,15.82,17.29,9.79,26.81,22.56,26.81,35.96s-9.52,26.16-26.81,35.96c-18,10.2-42.03,15.82-67.65,15.82s-49.64-5.62-67.65-15.82c-17.29-9.79-26.81-22.56-26.81-35.96s9.52-26.16,26.81-35.96c18-10.2,42.03-15.82,67.65-15.82m0-4c-54.38,0-98.45,24.97-98.45,55.77S142.04,14.91,196.41,14.91s98.45-24.97,98.45-55.77-44.08-55.77-98.45-55.77h0Z" style="fill:#004996; stroke-width:0px;"/></g></svg>